<?xml version="1.0" encoding="utf-8"?>
<!-- Generator: Adobe Illustrator 27.5.0, SVG Export Plug-In . SVG Version: 6.00 Build 0)  -->
<svg version="1.1" xmlns="http://www.w3.org/2000/svg" xmlns:xlink="http://www.w3.org/1999/xlink" x="0px" y="0px"
	 viewBox="0 0 1122 1122" style="enable-background:new 0 0 1122 1122;" xml:space="preserve">
<g id="Bg">
	<rect style="fill:#FFFFFF;" width="1122" height="1122"/>
</g>
<g id="Object">
	<g>
		<path style="fill:none;" d="M364.754,458.42c-8.15,2.122-14.195,9.086-14.195,17.588v14.443c0,9.304,7.171,16.926,16.457,18.212
			c-0.878-7.111-1.466-14.292-1.466-21.61c0-7.113,0.665-14.04,1.552-20.9C366.291,463.586,365.464,461.042,364.754,458.42z"/>
		<path style="fill:none;" d="M761.273,490.452v-14.443c0-9.142-6.983-16.572-16.051-18.034c-0.055,3.527-0.162,6.986-0.253,10.513
			c0.735,6.094,1.308,12.255,1.308,18.567c0,7.318-0.593,14.499-1.44,21.61C754.102,507.378,761.273,499.755,761.273,490.452z"/>
		<path style="fill:none;" d="M652.769,393.107c0,0-180.87,42.382-246.758,47.246c-1.902,0.125-3.681,0.213-5.391,0.234
			c-2.424,7.5-4.377,15.161-5.629,23.09c-1.207,7.642-2.019,15.409-2.019,23.377c0,5.663,0.365,11.276,0.979,16.799
			c1.065,9.458,3.053,18.635,5.782,27.508c19.941,64.854,82.36,112.35,156.165,112.35c73.841,0,136.266-47.481,156.202-112.333
			c2.729-8.89,4.711-18.067,5.766-27.51c0.614-5.538,0.969-11.152,0.969-16.814c0-7.967-0.822-15.734-2.023-23.395
			c-0.537-3.548-1.313-7.021-2.115-10.495C692.326,437.308,663.713,412.582,652.769,393.107z"/>
		<path style="fill:#AAD4C8;" d="M453.185,644.587l0.122,0.178l47.033,64.083l37.372-39.659
			c-28.39-2.599-54.873-11.297-78.233-24.602h-2.794H453.185z"/>
		<path style="fill:#AAD4C8;" d="M583.218,668.068l38.457,40.779l47.043-64.083l0.106-0.178h-3.509h-12.973
			C631.519,656.449,608.175,664.593,583.218,668.068z"/>
		<path style="fill:#616E7D;" d="M710.198,593.649c6.841,43.255,43.057,77.323,88.563,79.622
			c33.74,1.691,64.194-14.593,82.239-40.389c-37.397-4.688-67.521-30.987-78.369-65.531c-0.756-2.388-1.43-4.83-2.004-7.305
			c-5.761-15.643-19.708-27.419-36.839-30.13c14.743-7.533,24.921-22.284,24.921-39.464v-14.443
			c0-22.005-16.649-39.948-38.401-43.727c0.507-5.257,0.68-10.582,0.588-15.98c0.025-1.212,0.132-2.422,0.132-3.631
			c0-58.905-28.841-110.946-73.091-143.087c-46.521-30.928-94.258-35.88-130.595-34.686l-0.781,0.728h-0.578l-0.756-0.675
			c-4.899,0.178-9.489,0.497-13.916,0.854l-0.046,0.016l-2.495,0.178c-8.282,0.715-15.569,1.569-21.767,2.262l-2.744,0.431
			l0.923,1.674l-2.668-1.392c-31.509,5.969-60.087,20.187-83.294,40.499c-11.284,9.853-21.371,21.024-29.851,33.426
			c-16.442,24.054-27.076,52.36-29.982,82.936v0.013c-0.624,5.277-0.796,10.194-0.741,14.953l-0.101,1.872
			c0,6.644,0.528,13.163,1.283,19.611c-20.95,4.42-36.697,22.292-36.697,43.727v14.443c0,18.407,11.583,34.21,28.081,41.122
			c-13.881,4.453-24.88,15.022-29.846,28.471c-0.573,2.475-1.242,4.917-1.988,7.305c-10.858,34.545-40.972,60.843-78.38,65.531
			c18.04,25.796,48.493,42.08,82.275,40.389c41.89-2.122,75.91-31.179,86.408-69.558c13.961,16.195,30.748,30.005,49.66,40.782
			h-0.913c-0.588,0-1.156,0.091-1.744,0.091h2.794c23.359,13.305,49.843,22.003,78.233,24.602l-37.372,39.659l-47.033-64.083
			c-89.624,2.672-161.466,74.616-161.466,163.177v79.32h538.332v-79.32c0-88.548-71.848-160.505-161.455-163.177l-47.043,64.083
			l-38.457-40.779c24.957-3.474,48.301-11.619,69.124-23.481h12.973c-0.588,0-1.162-0.091-1.75-0.091h-11.097
			C675.179,631.545,694.831,614.208,710.198,593.649z M744.968,468.487c0.091-3.527,0.198-6.986,0.253-10.513
			c9.068,1.463,16.051,8.893,16.051,18.034v14.443c0,9.304-7.171,16.926-16.436,18.212c0.847-7.111,1.44-14.292,1.44-21.61
			C746.276,480.742,745.703,474.581,744.968,468.487z M367.016,508.664c-9.286-1.286-16.457-8.908-16.457-18.212v-14.443
			c0-8.502,6.045-15.466,14.195-17.588c0.71,2.622,1.537,5.166,2.348,7.734c-0.888,6.859-1.552,13.787-1.552,20.9
			C365.55,494.372,366.139,501.553,367.016,508.664z M555.898,643.711c-73.805,0-136.225-47.497-156.165-112.35
			c-2.729-8.873-4.717-18.049-5.782-27.508c-0.614-5.523-0.979-11.137-0.979-16.799c0-7.967,0.811-15.734,2.019-23.377
			c1.253-7.93,3.205-15.59,5.629-23.09c1.709-0.02,3.489-0.109,5.391-0.234c65.889-4.863,246.758-47.246,246.758-47.246
			c10.944,19.474,39.558,44.2,61.928,60.056c0.801,3.474,1.577,6.948,2.115,10.495c1.202,7.66,2.023,15.427,2.023,23.395
			c0,5.663-0.355,11.276-0.969,16.814c-1.055,9.443-3.037,18.62-5.766,27.51C692.164,596.23,629.739,643.711,555.898,643.711z"/>
	</g>
</g>
</svg>
